#define Sun_1_width 44
#define Sun_height 44
static unsigned char Sun_bits[] = {
	0x00, 0x00, 0x00, 0x00, 0x00, 0x00, 0x00, 0x00, 0x00, 0x00, 0x00, 0x00, 0x00, 0x00, 0x00, 0x00, 
	0x00, 0x00, 0x00, 0x00, 0x00, 0x00, 0x00, 0x00, 0x00, 0x00, 0x60, 0x00, 0x00, 0x00, 0x00, 0x00, 
	0x60, 0x00, 0x00, 0x00, 0x00, 0x00, 0x60, 0x00, 0x00, 0x00, 0x00, 0x00, 0x60, 0x00, 0x00, 0x00, 
	0x00, 0x00, 0x60, 0x00, 0x00, 0x00, 0x00, 0x06, 0x60, 0x00, 0x06, 0x00, 0x00, 0x0e, 0x00, 0x00, 
	0x07, 0x00, 0x00, 0x1c, 0x00, 0x80, 0x03, 0x00, 0x00, 0x38, 0x00, 0xc0, 0x01, 0x00, 0x00, 0x30, 
	0xf0, 0xc0, 0x00, 0x00, 0x00, 0x00, 0xfe, 0x07, 0x00, 0x00, 0x00, 0x00, 0xff, 0x0f, 0x00, 0x00, 
	0x00, 0x80, 0xff, 0x1f, 0x00, 0x00, 0x00, 0xc0, 0xff, 0x3f, 0x00, 0x00, 0x00, 0xc0, 0xff, 0x3f, 
	0x00, 0x00, 0x00, 0xc0, 0xff, 0x3f, 0x00, 0x00, 0x00, 0xe0, 0xff, 0x7f, 0x00, 0x00, 0xf0, 0xe3, 
	0xff, 0x7f, 0xfc, 0x00, 0xf0, 0xe3, 0xff, 0x7f, 0xfc, 0x00, 0x00, 0xe0, 0xff, 0x7f, 0x00, 0x00, 
	0x00, 0xc0, 0xff, 0x3f, 0x00, 0x00, 0x00, 0xc0, 0xff, 0x3f, 0x00, 0x00, 0x00, 0xc0, 0xff, 0x3f, 
	0x00, 0x00, 0x00, 0x80, 0xff, 0x1f, 0x00, 0x00, 0x00, 0x00, 0xff, 0x0f, 0x00, 0x00, 0x00, 0x00, 
	0xfe, 0x07, 0x00, 0x00, 0x00, 0x30, 0xf0, 0xc0, 0x00, 0x00, 0x00, 0x38, 0x00, 0xc0, 0x01, 0x00, 
	0x00, 0x1c, 0x00, 0x80, 0x03, 0x00, 0x00, 0x0e, 0x00, 0x00, 0x07, 0x00, 0x00, 0x06, 0x60, 0x00, 
	0x06, 0x00, 0x00, 0x00, 0x60, 0x00, 0x00, 0x00, 0x00, 0x00, 0x60, 0x00, 0x00, 0x00, 0x00, 0x00, 
	0x60, 0x00, 0x00, 0x00, 0x00, 0x00, 0x60, 0x00, 0x00, 0x00, 0x00, 0x00, 0x60, 0x00, 0x00, 0x00, 
	0x00, 0x00, 0x00, 0x00, 0x00, 0x00, 0x00, 0x00, 0x00, 0x00, 0x00, 0x00, 0x00, 0x00, 0x00, 0x00, 
	0x00, 0x00, 0x00, 0x00, 0x00, 0x00, 0x00, 0x00}
