#define HUD_width 128
#define HUD_height 64
static unsigned char HUD_bits[] = {
0x01, 0x01, 0x02, 0x02, 0x02, 0x02, 0x02, 0x02, 0x02, 0x04, 0x04, 0x04, 0x04, 0x04, 0x04, 0x04, 
	0x08, 0x08, 0x08, 0x0b, 0x1c, 0x68, 0x88, 0x10, 0x10, 0x10, 0x10, 0x10, 0x10, 0x20, 0x20, 0x20, 
	0x20, 0xa0, 0x60, 0x60, 0x60, 0x50, 0x48, 0x44, 0x42, 0x41, 0x40, 0x80, 0x80, 0x80, 0x80, 0x80, 
	0x80, 0x80, 0x00, 0x00, 0x00, 0x00, 0x00, 0x00, 0x00, 0x00, 0x01, 0x02, 0x04, 0x08, 0x10, 0x21, 
	0x46, 0x88, 0x11, 0x62, 0x84, 0x04, 0x08, 0x10, 0x10, 0x20, 0x20, 0x40, 0x40, 0x80, 0x80, 0x80, 
	0x80, 0x80, 0x40, 0x3e, 0x01, 0x00, 0x00, 0x00, 0x00, 0x00, 0x00, 0x00, 0x00, 0x00, 0x00, 0x00, 
	0x00, 0x00, 0x00, 0x00, 0x00, 0x01, 0x02, 0x04, 0x08, 0x10, 0x20, 0x20, 0x40, 0x80, 0x80, 0x00, 
	0x00, 0x00, 0x00, 0x00, 0x00, 0x00, 0x00, 0x00, 0x81, 0x7e, 0x00, 0x00, 0x00, 0x00, 0x00, 0x00, 
	0x00, 0x00, 0x00, 0x00, 0x00, 0x00, 0x00, 0x00, 0x00, 0x00, 0x00, 0x00, 0x00, 0x00, 0x00, 0x01, 
	0x07, 0x18, 0xe0, 0x00, 0x00, 0x00, 0x00, 0x00, 0x00, 0x00, 0x00, 0x00, 0x00, 0x00, 0x00, 0x00, 
	0x00, 0x00, 0x00, 0x00, 0x00, 0x00, 0x00, 0x00, 0x00, 0x00, 0x80, 0x40, 0x20, 0x10, 0x08, 0x04, 
	0x02, 0x01, 0x00, 0x01, 0x02, 0x04, 0x08, 0x31, 0x42, 0x85, 0x0a, 0x14, 0x28, 0x50, 0xa0, 0x40, 
	0x40, 0x80, 0x00, 0x00, 0x00, 0x00, 0x00, 0x00, 0x00, 0x00, 0x00, 0x00, 0x00, 0x00, 0x00, 0x00, 
	0x00, 0x00, 0x00, 0x00, 0xff, 0x00, 0x00, 0x00, 0x00, 0x00, 0x00, 0x00, 0x00, 0x00, 0x00, 0x00, 
	0x01, 0x06, 0x18, 0x20, 0xc0, 0x00, 0x00, 0x00, 0x00, 0x00, 0x00, 0x00, 0x00, 0x00, 0x00, 0x00, 
	0x00, 0x00, 0x00, 0x00, 0x00, 0x00, 0x07, 0x18, 0xe0, 0x00, 0x00, 0x00, 0x00, 0x00, 0x00, 0x00, 
	0x00, 0x00, 0x00, 0x00, 0x00, 0x00, 0x00, 0x00, 0x00, 0x00, 0x00, 0x00, 0x00, 0x03, 0x1c, 0xff, 
	0x00, 0x00, 0x00, 0x00, 0x01, 0x02, 0x04, 0x08, 0x10, 0x10, 0x20, 0x20, 0x1c, 0x03, 0x00, 0x00, 
	0x00, 0x00, 0x00, 0x00, 0x00, 0x00, 0x00, 0x00, 0x00, 0x00, 0x01, 0x01, 0x02, 0x03, 0x03, 0x06, 
	0x1c, 0x2d, 0xd6, 0x64, 0x6c, 0x52, 0xaa, 0x46, 0x82, 0x03, 0x02, 0x02, 0x02, 0x02, 0x01, 0x01, 
	0x01, 0x01, 0x01, 0x01, 0x01, 0x00, 0x00, 0x00, 0x00, 0x00, 0x00, 0x00, 0x00, 0x00, 0x00, 0x00, 
	0x00, 0x00, 0x00, 0x00, 0x80, 0x7f, 0x00, 0x00, 0x00, 0x00, 0x00, 0x00, 0x00, 0x01, 0x0e, 0x70, 
	0x80, 0x00, 0x00, 0x00, 0x00, 0x00, 0x00, 0x00, 0x00, 0x00, 0x00, 0x00, 0x00, 0x00, 0x00, 0x00, 
	0x00, 0x01, 0x06, 0x08, 0x30, 0xc0, 0x00, 0x00, 0x00, 0x00, 0x00, 0x00, 0x00, 0x00, 0x00, 0x00, 
	0x00, 0x00, 0x00, 0x00, 0x00, 0x00, 0x00, 0x00, 0x00, 0x00, 0x07, 0x18, 0xe0, 0x00, 0x00, 0x00, 
	0xc0, 0x20, 0x20, 0x40, 0x80, 0x00, 0x00, 0x00, 0x00, 0x00, 0x01, 0x01, 0x01, 0x82, 0x72, 0x0c, 
	0x06, 0x09, 0x08, 0x11, 0x22, 0x24, 0x44, 0x48, 0x91, 0xa7, 0x2d, 0x74, 0xc8, 0x90, 0x20, 0x40, 
	0x80, 0x00, 0x00, 0x00, 0x00, 0x00, 0x00, 0x00, 0x00, 0x00, 0xc0, 0x20, 0x10, 0x08, 0x04, 0x03, 
	0x01, 0x01, 0x01, 0x02, 0x02, 0x84, 0x84, 0x84, 0x88, 0x89, 0x8e, 0x80, 0x40, 0x40, 0x40, 0x40, 
	0x40, 0x40, 0x40, 0x20, 0x20, 0xa0, 0x7c, 0x23, 0x20, 0x20, 0x10, 0x10, 0x1f, 0xf2, 0x14, 0x18, 
	0x18, 0x18, 0x28, 0x28, 0x28, 0x48, 0x48, 0x24, 0x24, 0x14, 0x0c, 0x07, 0x06, 0x04, 0x1a, 0x22, 
	0x42, 0x82, 0x02, 0x02, 0x02, 0x01, 0x01, 0x01, 0x01, 0x01, 0x01, 0x00, 0x00, 0x00, 0x00, 0x00, 
	0x01, 0x02, 0x02, 0x02, 0x02, 0x02, 0x04, 0x07, 0x3c, 0xc4, 0x08, 0x08, 0x08, 0x08, 0x10, 0x10, 
	0x10, 0x20, 0x20, 0x20, 0x20, 0x40, 0x40, 0x41, 0x81, 0x82, 0x04, 0x04, 0x08, 0x10, 0x20, 0x20, 
	0x43, 0x84, 0x89, 0x92, 0xac, 0xb0, 0xe0, 0xc0, 0x80, 0x00, 0x00, 0x80, 0x80, 0x80, 0x80, 0x80, 
	0x80, 0x80, 0x80, 0x40, 0x40, 0x40, 0x40, 0x40, 0x40, 0x60, 0x40, 0x40, 0x40, 0x80, 0x80, 0x80, 
	0x80, 0x40, 0x20, 0x18, 0x05, 0x06, 0x09, 0x10, 0x60, 0x80, 0x00, 0x00, 0x00, 0x00, 0x00, 0x00, 
	0x00, 0x00, 0x00, 0x00, 0x00, 0x00, 0x00, 0x01, 0xe6, 0x18, 0x27, 0xfd, 0x80, 0x00, 0x00, 0x00, 
	0x00, 0x01, 0x02, 0x02, 0x04, 0x08, 0x10, 0x10, 0x21, 0x4e, 0xf0, 0x80, 0x00, 0x00, 0x00, 0x00, 
	0x00, 0x00, 0x00, 0x00, 0x00, 0x00, 0x00, 0x00, 0x00, 0x00, 0x00, 0x80, 0x80, 0x80, 0x80, 0x80, 
	0x00, 0x00, 0x00, 0x00, 0x01, 0x0e, 0xf0, 0x00, 0x00, 0x00, 0x00, 0x01, 0x02, 0x02, 0x04, 0x08, 
	0x08, 0x10, 0x10, 0x20, 0x40, 0x40, 0x80, 0x00, 0x00, 0x00, 0x00, 0x03, 0x0f, 0x32, 0x4c, 0x90, 
	0x20, 0xc0, 0x00, 0x00, 0x00, 0x00, 0x00, 0x00, 0x00, 0x00, 0x00, 0x00, 0x00, 0x00, 0x00, 0x00, 
	0x00, 0x00, 0x00, 0x00, 0x00, 0x00, 0x00, 0x00, 0x00, 0x00, 0x01, 0x02, 0x02, 0x04, 0x08, 0x10, 
	0x10, 0x20, 0x40, 0x80, 0x00, 0x00, 0x80, 0x40, 0x30, 0x08, 0x04, 0x03, 0x00, 0x00, 0x00, 0x00, 
	0x00, 0x00, 0x01, 0x06, 0x08, 0x31, 0xc1, 0x02, 0x04, 0x07, 0xf8, 0x90, 0x60, 0x20, 0x50, 0x88, 
	0x84, 0x04, 0x02, 0x04, 0x04, 0x08, 0x30, 0x40, 0x80, 0x00, 0x00, 0x00, 0x00, 0x00, 0x00, 0x00, 
	0x00, 0x00, 0x00, 0x00, 0x00, 0x00, 0x00, 0x00, 0x00, 0x00, 0x00, 0x00, 0x00, 0x00, 0x00, 0x00, 
	0x02, 0x04, 0x0b, 0x3c, 0xd0, 0x10, 0x20, 0x40, 0x40, 0x80, 0x80, 0x00, 0x00, 0x00, 0x00, 0x00, 
	0x00, 0x00, 0x00, 0x00, 0x00, 0x01, 0x02, 0x04, 0x08, 0x10, 0x7e, 0x81, 0x01, 0x01, 0x00, 0x00, 
	0x01, 0x01, 0x01, 0x01, 0x01, 0x01, 0x01, 0x01, 0x02, 0x02, 0x02, 0x02, 0x04, 0x04, 0x04, 0x04, 
	0x08, 0x08, 0x08, 0x10, 0x10, 0x20, 0x40, 0x40, 0x80, 0x80, 0x00, 0x00, 0x00, 0x00, 0x00, 0x00, 
	0x00, 0x00, 0x00, 0x00, 0x00, 0x00, 0x00, 0x00, 0x00, 0x00, 0x00, 0x01, 0x82, 0x44, 0x3b, 0x0c, 
	0x16, 0x61, 0xc0, 0x40, 0x80, 0x00, 0x00, 0x00, 0x01, 0xfe, 0x00, 0x00, 0x00, 0x00, 0x00, 0x00, 
	0x00, 0x00, 0x00, 0x00, 0x00, 0x00, 0x00, 0x00, 0x00, 0x00, 0x00, 0x00, 0x00, 0x00, 0x00, 0x00, 
	0x00, 0x00, 0x00, 0x00, 0x00, 0x00, 0x00, 0x00, 0x00, 0x00, 0x00, 0x00, 0x00, 0x00, 0x00, 0x00, 
	0x0b, 0x7c, 0x88, 0x08, 0x08, 0x04, 0x04, 0x04, 0x04, 0x04, 0x04, 0x04, 0x04, 0x04, 0x05, 0x06, 
	0x04, 0x0a, 0x12, 0x22, 0xc2, 0x02, 0x02, 0x02, 0x02, 0x02, 0x02, 0x02, 0x02, 0x01, 0x81, 0x81, 
	0x01, 0x01, 0x01, 0x01, 0x01, 0x01, 0x01, 0x01, 0x01, 0x00, 0x00, 0x00, 0x00, 0x00, 0x00, 0x00, 
	0x00, 0x00, 0x00, 0x00, 0x00, 0x00, 0x00, 0x00, 0x00, 0x00, 0x00, 0x00, 0x00, 0x00, 0x00, 0x00, 
	0x00, 0x00, 0x00, 0x01, 0x02, 0x04, 0x08, 0x10, 0x20, 0x43, 0x84, 0x18, 0x60, 0x80, 0x00, 0x00, 
	0x00, 0x00, 0x80, 0x60, 0x10, 0x0c, 0x02, 0x01, 0xc0, 0x3f, 0x00, 0x00, 0x00, 0x00, 0x00, 0x00, 
	0x00, 0x00, 0x00, 0x00, 0x00, 0x00, 0x00, 0x00, 0x00, 0x00, 0x00, 0x00, 0x00, 0x00, 0x00, 0x00, 
	0x00, 0x00, 0x00, 0x00, 0x00, 0x00, 0x00, 0x00, 0x00, 0x00, 0x00, 0x00, 0x00, 0x00, 0x00, 0x00}
