#define HUD_width 128
#define HUD_height 64
static unsigned char HUD_bits[] = {
0x00, 0x00, 0x02, 0x00, 0x40, 0x1f, 0xc0, 0x00, 0x48, 0x07, 0xc0, 0x00, 0x00, 0x06, 0x00, 0x80, 
	0x00, 0x00, 0x04, 0x00, 0x3f, 0xe0, 0x00, 0x00, 0x90, 0x18, 0x20, 0x00, 0x00, 0x08, 0x00, 0x40, 
	0x00, 0x00, 0x04, 0x07, 0xf8, 0x00, 0x00, 0x01, 0x10, 0x60, 0x10, 0x00, 0x00, 0x30, 0x00, 0x40, 
	0x00, 0x00, 0x09, 0xf8, 0x04, 0x00, 0x00, 0x02, 0x21, 0x80, 0x10, 0x00, 0x00, 0x40, 0x00, 0x40, 
	0x00, 0x00, 0xfe, 0x00, 0x02, 0x00, 0x00, 0x04, 0x42, 0x00, 0x10, 0x00, 0x00, 0x80, 0x00, 0x40, 
	0x00, 0x7f, 0x08, 0x00, 0x01, 0x00, 0x00, 0x08, 0x8c, 0x00, 0x10, 0x00, 0x01, 0x00, 0x00, 0x40, 
	0x3f, 0x80, 0x10, 0x00, 0x00, 0x80, 0x00, 0x10, 0x90, 0x00, 0x10, 0x00, 0x02, 0x00, 0x00, 0x40, 
	0xc0, 0x00, 0x10, 0x00, 0x00, 0x40, 0x00, 0x21, 0x20, 0x00, 0x08, 0x00, 0x04, 0x00, 0x00, 0x80, 
	0x00, 0x00, 0x20, 0x00, 0x00, 0x20, 0x00, 0x42, 0x40, 0x00, 0x08, 0x00, 0x08, 0x00, 0x00, 0x80, 
	0x00, 0x00, 0x20, 0x00, 0x00, 0x10, 0x00, 0x85, 0x80, 0x00, 0x08, 0x00, 0x08, 0x00, 0x00, 0x80, 
	0x00, 0x00, 0x20, 0x00, 0x00, 0x08, 0x01, 0x0a, 0x00, 0x00, 0x08, 0x00, 0x10, 0x00, 0x00, 0x80, 
	0x00, 0x00, 0x40, 0x00, 0x00, 0x04, 0x01, 0x14, 0x00, 0x00, 0x08, 0x00, 0x20, 0x00, 0x01, 0x00, 
	0x00, 0x00, 0x40, 0x00, 0x00, 0x02, 0x02, 0x28, 0x00, 0x00, 0x08, 0x00, 0x20, 0x00, 0x01, 0x00, 
	0x00, 0x00, 0x80, 0x00, 0x00, 0x01, 0x04, 0x50, 0x00, 0x00, 0x08, 0x00, 0x40, 0x00, 0x02, 0x00, 
	0x00, 0x00, 0x80, 0x00, 0x00, 0x00, 0x88, 0xa0, 0x00, 0x00, 0x08, 0x00, 0x40, 0x00, 0x02, 0x00, 
	0x00, 0x01, 0x80, 0x00, 0x00, 0x00, 0x51, 0x40, 0x00, 0x00, 0x08, 0x00, 0x80, 0x00, 0x02, 0x00, 
	0x00, 0x01, 0x00, 0x00, 0x00, 0x00, 0x22, 0x80, 0x00, 0x00, 0x08, 0x00, 0x80, 0x00, 0x04, 0x00, 
	0x00, 0x01, 0x00, 0x00, 0x00, 0x00, 0x3d, 0x00, 0x00, 0x00, 0x04, 0x01, 0x00, 0x00, 0x04, 0x00, 
	0x00, 0x01, 0x00, 0x30, 0x00, 0x00, 0x5a, 0x00, 0x00, 0x00, 0x04, 0x01, 0x00, 0x00, 0x08, 0x00, 
	0x00, 0x03, 0x00, 0xc8, 0x00, 0x00, 0xa4, 0x00, 0x00, 0x00, 0x04, 0x01, 0x00, 0x00, 0x08, 0x00, 
	0x00, 0x03, 0x01, 0x08, 0x00, 0x00, 0xca, 0x00, 0x00, 0x00, 0x04, 0x02, 0x00, 0x00, 0x10, 0x00, 
	0x00, 0x03, 0x02, 0x08, 0x00, 0x01, 0xf9, 0x00, 0x00, 0x00, 0x04, 0x02, 0x00, 0x00, 0x20, 0x00, 
	0x00, 0x05, 0x04, 0x04, 0x00, 0x0f, 0x27, 0xfc, 0x00, 0x00, 0x04, 0x02, 0x00, 0x00, 0x20, 0x00, 
	0x00, 0x05, 0x08, 0x04, 0x00, 0x36, 0x40, 0x43, 0xf8, 0x00, 0x04, 0x04, 0x00, 0x00, 0x40, 0x00, 
	0x00, 0x08, 0x88, 0x04, 0x00, 0xcc, 0x80, 0x20, 0x07, 0xf0, 0x04, 0x04, 0x00, 0x00, 0x40, 0x00, 
	0x00, 0x08, 0x90, 0x02, 0x03, 0x19, 0x00, 0x20, 0x00, 0x0f, 0xe2, 0x04, 0x06, 0x00, 0x80, 0x00, 
	0x00, 0x08, 0x60, 0x02, 0x0c, 0x72, 0x00, 0x10, 0x00, 0x00, 0x1f, 0xc4, 0x39, 0x81, 0x00, 0x00, 
	0x00, 0x10, 0x00, 0x02, 0x10, 0x94, 0x00, 0x08, 0x00, 0x00, 0x02, 0x3f, 0xc0, 0x42, 0x00, 0x00, 
	0x00, 0x10, 0x00, 0x01, 0x61, 0x28, 0x00, 0x04, 0x00, 0xe0, 0x02, 0x09, 0xfe, 0x22, 0x00, 0x00, 
	0x00, 0x20, 0x00, 0x01, 0x86, 0x70, 0x00, 0x02, 0x07, 0x20, 0x02, 0x0a, 0x01, 0xfc, 0x00, 0x00, 
	0x00, 0x20, 0x00, 0x06, 0x88, 0x40, 0x00, 0x01, 0x18, 0x20, 0x01, 0x0c, 0x00, 0x1b, 0xf8, 0x00, 
	0x00, 0x20, 0x00, 0x38, 0x50, 0xe0, 0x00, 0x01, 0xe0, 0x40, 0x01, 0x08, 0x00, 0x10, 0x07, 0xe0, 
	0x00, 0x40, 0x00, 0xc0, 0x7f, 0x9f, 0xe0, 0x07, 0x80, 0x40, 0x00, 0x98, 0x00, 0x30, 0x00, 0x1f, 
	0x00, 0x40, 0x07, 0x00, 0x83, 0x00, 0x1f, 0xf8, 0x40, 0x80, 0x00, 0x90, 0x00, 0x60, 0x00, 0x00, 
	0x00, 0x80, 0x78, 0x03, 0x0e, 0x00, 0x00, 0x40, 0x20, 0x80, 0x00, 0xb0, 0x00, 0xa0, 0x00, 0x00, 
	0x00, 0x83, 0x80, 0x04, 0x14, 0x00, 0x00, 0x00, 0x11, 0x00, 0x00, 0x50, 0x03, 0x20, 0x00, 0x00, 
	0x00, 0xbc, 0x00, 0x08, 0x28, 0x00, 0x00, 0x00, 0x12, 0x00, 0x00, 0x50, 0x04, 0x40, 0x00, 0x00, 
	0x03, 0xc0, 0x00, 0x30, 0x48, 0x00, 0x00, 0x00, 0x0c, 0x00, 0x00, 0xb0, 0x08, 0x40, 0x00, 0x00, 
	0x7d, 0x00, 0x00, 0x40, 0x90, 0x00, 0x00, 0x00, 0x04, 0x00, 0x00, 0xa0, 0x30, 0x40, 0x00, 0x00, 
	0x81, 0x00, 0x01, 0x80, 0xa0, 0x00, 0x00, 0x00, 0x0a, 0x00, 0x01, 0x30, 0x40, 0x80, 0x00, 0x00, 
	0x02, 0x00, 0x02, 0x01, 0x40, 0x00, 0x00, 0x00, 0x12, 0x00, 0x02, 0x31, 0x80, 0x80, 0x00, 0x00, 
	0x02, 0x00, 0x0c, 0x02, 0x40, 0x00, 0x00, 0x00, 0x21, 0x00, 0x02, 0x2a, 0x01, 0x00, 0x00, 0x00, 
	0x02, 0x00, 0x10, 0x04, 0x80, 0x00, 0x00, 0x00, 0x40, 0x80, 0x04, 0x2c, 0x02, 0x00, 0x00, 0x00, 
	0x02, 0x00, 0x60, 0x05, 0x00, 0x00, 0x00, 0x01, 0x80, 0x80, 0x04, 0x32, 0x02, 0x00, 0x00, 0x00, 
	0x04, 0x01, 0x80, 0x0a, 0x00, 0x00, 0x00, 0x02, 0x00, 0x40, 0x08, 0x21, 0x04, 0x00, 0x00, 0x00, 
	0x04, 0x02, 0x00, 0x0a, 0x00, 0x00, 0x00, 0x04, 0x00, 0x20, 0x10, 0xc0, 0xd8, 0x00, 0x00, 0x00, 
	0x04, 0x0c, 0x00, 0x1c, 0x00, 0x00, 0x00, 0x18, 0x00, 0x10, 0x11, 0x40, 0x20, 0x00, 0x00, 0x00, 
	0x08, 0x10, 0x00, 0x18, 0x00, 0x00, 0x00, 0x20, 0x00, 0x10, 0x26, 0x40, 0x00, 0x00, 0x00, 0x00, 
	0x08, 0x60, 0x00, 0x10, 0x00, 0x00, 0x00, 0xc0, 0x00, 0x08, 0x28, 0x40, 0x00, 0x00, 0x00, 0x00, 
	0x09, 0x80, 0x00, 0x20, 0x00, 0x00, 0x03, 0x00, 0x00, 0x04, 0x70, 0x40, 0x00, 0x00, 0x00, 0x00, 
	0x12, 0x00, 0x00, 0x20, 0x00, 0x00, 0x04, 0x00, 0x00, 0x02, 0x40, 0x40, 0x00, 0x00, 0x00, 0x00, 
	0x1c, 0x00, 0x00, 0x60, 0x00, 0x00, 0x18, 0x00, 0x00, 0x02, 0x80, 0x40, 0x00, 0x00, 0x00, 0x00, 
	0x30, 0x00, 0x00, 0xa0, 0x00, 0x00, 0xe0, 0x00, 0x00, 0x03, 0x00, 0x40, 0x00, 0x00, 0x00, 0x00, 
	0x50, 0x00, 0x01, 0x20, 0x00, 0x0f, 0x00, 0x00, 0x00, 0x05, 0x80, 0x40, 0x00, 0x00, 0x00, 0x00, 
	0xa0, 0x00, 0x02, 0x20, 0x00, 0xf0, 0x00, 0x00, 0x00, 0x0a, 0x80, 0x40, 0x00, 0x00, 0x00, 0x00, 
	0x20, 0x00, 0x04, 0x1c, 0xff, 0x00, 0x00, 0x00, 0x00, 0x12, 0x40, 0x80, 0x00, 0x00, 0x00, 0x00, 
	0x20, 0x00, 0x08, 0x03, 0x00, 0x00, 0x00, 0x00, 0x00, 0x24, 0x20, 0x80, 0x00, 0x00, 0x00, 0x00, 
	0x40, 0x00, 0x08, 0x00, 0x00, 0x00, 0x00, 0x00, 0x00, 0x48, 0x10, 0x80, 0x00, 0x00, 0x00, 0x00, 
	0x40, 0x00, 0x10, 0x00, 0x00, 0x00, 0x00, 0x00, 0x00, 0x88, 0x10, 0x40, 0x00, 0x00, 0x00, 0x00, 
	0x40, 0x00, 0x20, 0x00, 0x00, 0x00, 0x00, 0x00, 0x01, 0x10, 0x08, 0x40, 0x00, 0x00, 0x00, 0x00, 
	0xf8, 0x00, 0x40, 0x00, 0x00, 0x00, 0x00, 0x00, 0x02, 0x10, 0x04, 0x40, 0x00, 0x00, 0x00, 0x00, 
	0x47, 0xff, 0x80, 0x00, 0x00, 0x00, 0x00, 0x00, 0x04, 0x20, 0x04, 0x40, 0x00, 0x00, 0x00, 0x00, 
	0x80, 0x01, 0x7f, 0xf8, 0x00, 0x00, 0x00, 0x00, 0x08, 0x40, 0x02, 0x40, 0x00, 0x00, 0x00, 0x00, 
	0x80, 0x02, 0x00, 0x07, 0xff, 0x80, 0x00, 0x00, 0x10, 0x40, 0x01, 0x40, 0x00, 0x00, 0x00, 0x00}
